<?xml version="1.0" encoding="UTF-8"?>
<svg id="Camada_2" data-name="Camada 2" xmlns="http://www.w3.org/2000/svg" viewBox="0 0 1081.32 368.6">
  <defs>
    <style>
      .cls-1 {
        fill: #00cf21;
      }
    </style>
  </defs>
  <g id="Conteudo">
    <g>
      <path class="cls-1" d="M696.53,91.25l-217.2,116.7c-9.7,5.21-79.1-82.07-79.1-82.07l232.97-68.36c14.29-7.31,19.19-46.34,26.94-32.29l36.39,66.02Z"/>
      <path d="M696.53,91.25h-300.02c-18.13,0-34.86-9.73-43.84-25.48L315.21,0h301.23c18.38,0,35.31,10,44.18,26.1l35.91,65.15Z"/>
      <path d="M749.62,217.11h-260.8c-16.73,0-32.38-8.3-41.77-22.15l-46.82-69.1"/>
      <path d="M85.38,364.15c0,.33-.48.57-1.43.72-1.82.29-6.38.14-13.68.43-13.55.54-17.31-6.85-18.7-10.53-1.86-4.77-4.78-11.82-8.74-21.13-.86-1.86-2.84-2.89-5.95-3.08,1.43.1-1.03.14-7.38.14-.72,0-1.07,1.22-1.07,3.65,0,3.25.58,8.07.9,14.54.36,7.2-3.2,15.54-14.93,16.4-6.81.5-10.94-.14-12.32-.43-1.39-.29-2.08-1.03-2.08-2.22,0-5.25.25-13.18.75-23.78.5-10.6.75-18.55.75-23.85,0-20.2-.45-35.96-1.36-47.28l-.07-1c-.05-.81.7-1.36,2.26-1.65,1.55-.29,8.85-.57,21.88-.86,8.83-.19,15.88-.29,21.13-.29,10.89,0,19.77,2.46,26.65,7.38,7.78,5.54,11.68,13.54,11.68,24,0,6.97-1,12.54-3.01,16.69-2.01,4.15-5.71,8.19-11.1,12.11-1.1.76-1.65,1.48-1.65,2.15,0-.05,2.91,5.95,8.74,17.98,5.83,12.03,8.74,18.67,8.74,19.91ZM55.3,299.9c0-5.83-1.91-9.86-5.73-12.11-2.96-1.72-7.59-2.58-13.9-2.58-4.54,0-6.95.69-7.23,2.08-.29,1.62-.43,6.3-.43,14.04,0,1.1.02,2.72.07,4.87.05,2.15.07,3.75.07,4.8,0,.24.76.48,2.29.72,2.91.43,5.97.64,9.17.64,10.46,0,15.69-4.15,15.69-12.46Z"/>
      <path d="M161.88,329.63c0,10.89-3.33,19.72-9.99,26.5-6.66,6.78-15.41,10.17-26.25,10.17s-19.15-3.34-25.93-10.03c-6.78-6.69-10.17-15.28-10.17-25.79,0-11.08,3.25-20.07,9.74-26.97,6.49-6.9,15.28-10.35,26.36-10.35s19.53,3.38,26.22,10.14c6.69,6.76,10.03,15.53,10.03,26.32ZM138.39,329.63c0-3.77-1.17-7.1-3.51-9.99-2.34-2.89-5.37-4.33-9.1-4.33s-6.88,1.48-9.31,4.44c-2.29,2.77-3.44,6.06-3.44,9.88s1.15,7.19,3.44,9.96c2.44,2.96,5.54,4.44,9.31,4.44s6.8-1.48,9.24-4.44c2.24-2.77,3.37-6.09,3.37-9.96Z"/>
      <path d="M219.15,343.88c0,1.43-.19,3.6-.54,6.52-.96,8.04-11.81,15.76-23.82,15.76-13.8,0-20.7-5.28-20.7-15.83,0-3.15.12-7.89.36-14.22.24-6.33.36-11.07.36-14.22,0-2.1-1.22-3.15-3.65-3.15h-.93c-.43.05-.74.07-.93.07-1.82,0-2.72-.64-2.72-1.93,0-.76.06-1.93.18-3.51.12-1.58.17-2.75.18-3.51.1-9.87,6.88-11.27,7.02-12.18.29-1.81.38-4.68.29-8.6-.19-6.16-.29-9.1-.29-8.81,0-5.54.53-8.31,1.58-8.31,1.29,0,3.25-.08,5.52.86,17.95,7.42,17.55,19.1,17.55,21.06,0,2.34.69,3.51,2.08,3.51,1.67,0,4.2-.07,7.59-.21,3.39-.14,5.95-.21,7.66-.21,1.05,0,1.58.36,1.58,1.07,0,1.1-.12,2.75-.36,4.94-.24,2.2-.19,3.86-.36,4.94-.95,6.02-6.03,11.13-11.53,11.32h-5.37c-.72,0-1.07,1.05-1.07,3.15v5.09c.05,2.29.07,3.99.07,5.09,0,4.01.45,6.78,1.36,8.31,1.29,2.05,3.82,3.08,7.59,3.08,1.19,0,2.9-.27,5.12-.82,2.22-.55,3.78-.82,4.69-.82,1,0,1.5.53,1.5,1.58Z"/>
      <path d="M297.98,329.06c-.23,3.67.21,9.14.64,16.4.43,7.26.64,12.7.64,16.33,0,1.91-.84,2.94-2.51,3.08-5.92.43-15.95,2.54-23.28-7.66-.38.19-.88.6-1.5,1.22-5.35,5.4-11.08,8.09-17.19,8.09-9.31,0-17.02-3.68-23.14-11.03-5.78-6.88-8.67-15.09-8.67-24.64,0-11.03,2.98-19.91,8.95-26.65,6.21-6.97,14.71-10.46,25.5-10.46,7.5,0,13.42,2.63,17.76,7.88.19.24.36.36.5.36.43,0,.92-1.16,1.47-3.47.55-2.32,1.22-3.61,1.97-3.47,8.49,1.51,20.68,4.43,18.84,34.02ZM274.91,329.49c0-4.06-1.28-7.41-3.83-10.06-2.55-2.65-5.89-3.98-9.99-3.98s-7.43,1.31-9.96,3.94c-2.53,2.63-3.8,5.99-3.8,10.1,0,3.87,1.34,7.19,4.01,9.96,2.67,2.77,5.92,4.15,9.74,4.15,4.06,0,7.38-1.33,9.96-3.98,2.58-2.65,3.87-6.03,3.87-10.14Z"/>
      <path class="cls-1" d="M398.26,331.92c0,9.69-4.08,18-12.25,24.93-7.16,6.11-15.88,10-26.14,11.68-.38.05-.69.07-.93.07-1.1,0-3.53-3.36-7.31-10.06-3.77-6.71-5.66-10.8-5.66-12.28,0-.53.36-.86,1.07-1,6.92-1.58,11.51-2.91,13.75-4.01,4.97-2.48,7.45-6.16,7.45-11.03,0-3.1-1.62-6.57-4.87-10.39-5.64-6.49-8.69-10.1-9.17-10.82-3.29-4.97-4.94-10.46-4.94-16.47,0-8.74,4.03-16,12.11-21.78,6.59-4.77,14.68-7.88,24.28-9.31.53-.05.93-.07,1.22-.07.72,0,1.29.57,1.72,1.72,1.24,3.49,4.13,9.79,8.67,18.91.14.29.21.53.21.72,0,.81-.43,1.22-1.29,1.22-.38,0-1.03-.07-1.93-.21-.91-.14-1.6-.21-2.08-.21-3.44,0-6.45.79-9.03,2.36-3.1,1.82-4.66,4.35-4.66,7.59,0,2.91,1.72,6.49,5.16,10.74,6.06,7.64,9.24,11.65,9.53,12.03,3.39,5.25,5.09,10.48,5.09,15.69Z"/>
      <path class="cls-1" d="M483.35,299.76c0,3.53-.17,8.84-.5,15.9-.33,7.07-.5,12.37-.5,15.9s.12,8.6.36,15.47c.24,6.88.36,12.01.36,15.4,0,1.29-.6,2.1-1.79,2.44-1.82.48-5.66.72-11.53.72-5.21,0-11.37-1.79-14.04-9.74.67,0-1.74,1.62-7.23,4.87-5.49,3.25-10.48,4.87-14.97,4.87-12.65,0-20.15-5.71-22.49-17.12-1.05-5.3-1.58-12.99-1.58-23.06,0-10.89.88-19.48,2.65-25.79.53-1.96,1.5-2.94,2.94-2.94,2.2,0,5.54.02,10.03.07,4.49.05,9.59,1.36,10.6,23.21.39,8.3.26,13.99.79,17.05.86,5.25,3.99,7.88,9.38,7.88,2.1,0,4.38-.93,6.84-2.79,2.46-1.86,4-3.8,3.83-5.8-3.32-40.3,8.94-39.44,13.65-39.4,4.7.05,8.23.07,10.57.07,1.43,0,2.27.36,2.51,1.07.1.38.14.96.14,1.72Z"/>
      <path class="cls-1" d="M537.07,306.92c0,.48-.36,1.12-1.07,1.93-1.34-.33-2.67-.5-4.01-.5-2.82,0-5.18.62-7.09,1.86-2.29,1.43-3.44,3.46-3.44,6.09,0,1.67,1.22,3.8,3.65,6.37,3.68,3.87,5.95,6.47,6.8,7.81,2.44,3.63,3.65,7.52,3.65,11.68,0,2.44-.48,5.01-1.43,7.74-1.1,3.01-2.48,5.21-4.15,6.59-3.53,3.06-7.66,5.64-12.39,7.74-5.11,2.2-9.81,3.29-14.11,3.29-.96,0-3.09-2.59-6.41-7.77-3.32-5.18-4.98-8.34-4.98-9.49,0-.43.26-.69.79-.79,3.34-.62,6.71-1.24,10.1-1.86,4.2-1.34,6.3-3.53,6.3-6.59,0-2.1-1.22-4.54-3.65-7.31-4.35-4.82-6.61-7.38-6.8-7.66-2.44-3.44-3.65-7.07-3.65-10.89,0-7.16,3.63-13.25,10.89-18.27,6.49-4.44,13.44-6.66,20.84-6.66.76,0,2.65,2.57,5.66,7.7,3.01,5.13,4.51,8.13,4.51,8.99Z"/>
      <path class="cls-1" d="M595.31,343.88c0,10.06-10.06,22.05-24.35,22.28-13.8.22-20.7-5.28-20.7-15.83,0-3.15.12-7.89.36-14.22.24-6.33.36-11.07.36-14.22,0-2.1-1.22-3.15-3.65-3.15h-.93c-.43.05-.74.07-.93.07-1.82,0-2.72-.64-2.72-1.93,0-.76.06-1.93.18-3.51.12-1.58.16-2.75.18-3.51.2-9.06,6.88-11.27,7.02-12.18.29-1.81.38-4.68.29-8.6-.19-6.16-.29-9.1-.29-8.81,0-5.54.53-8.31,1.58-8.31,1.29,0,3.11.39,5.52.86,7.96,1.56,17.14,7.62,17.55,21.06.07,2.34.69,3.51,2.08,3.51,1.67,0,4.2-.07,7.59-.21,3.39-.14,5.95-.21,7.66-.21,1.05,0,1.58.36,1.58,1.07,0,1.1-.12,2.75-.36,4.94-.24,2.2-.33,3.84-.36,4.94-.08,3.46-3.78,11.14-11.53,11.32h-5.37c-.72,0-1.07,1.05-1.07,3.15v5.09c.05,2.29.07,3.99.07,5.09,0,4.01.45,6.78,1.36,8.31,1.29,2.05,3.82,3.08,7.59,3.08,1.19,0,2.9-.27,5.12-.82,2.22-.55,3.78-.82,4.69-.82,1,0,1.5.53,1.5,1.58Z"/>
      <path class="cls-1" d="M668.44,325.98c0,4.82-1.55,7.57-4.66,8.24-.53.1-5.47.62-14.83,1.58-5.64.62-14.04,1.36-25.21,2.22.67,3.1,2.7,5.47,6.09,7.09,2.77,1.34,5.92,2.01,9.46,2.01,4.25,0,8.52-1.15,12.82-3.44,1.81-1.15,3.63-2.29,5.44-3.44,1,.48,5.53,2.34,5.05,7.31-.84,8.71-12.4,19.41-24.68,19.41-11.37,0-20.53-3.32-27.51-9.96-7.16-6.73-10.74-15.73-10.74-27s3.2-19.98,9.6-27c6.59-7.26,15.33-10.89,26.22-10.89,9.17,0,16.95,3.34,23.35,10.03,6.4,6.69,9.6,14.64,9.6,23.85ZM643.37,321.61c0-2.96-1.05-5.56-3.15-7.81-2.1-2.24-4.61-3.37-7.52-3.37s-5.49,1.27-7.45,3.8c-1.82,2.34-2.72,5.09-2.72,8.24,0,1.29.67,1.93,2.01,1.93,3.53,0,9.03-.55,16.47-1.65,1.58-.24,2.36-.62,2.36-1.15Z"/>
      <path class="cls-1" d="M747.52,362.79c0,1.29-.67,2.03-2.01,2.22-1.34.19-4.82.29-10.46.29-9.1,0-13.25-9-13.11-13.54.14-4.54.21-7.95.21-10.24,0-1.77-.05-4.41-.14-7.91-.1-3.51-.14-6.15-.14-7.91,0-6.54-2.84-9.81-8.52-9.81-1.86,0-4.04.81-6.52,2.44-2.67,1.82-4.01,3.61-4.01,5.37,0,0-.35,19.19-1.04,31.42-.32,5.68-.72,9.85-1.18,9.91-1.67.19-5.09.29-10.24.29-5.59,0-9.22-.14-10.89-.43-1.48-.24-2.22-1.03-2.22-2.36,0-3.72.02-9.34.07-16.83.05-7.5.07-13.13.07-16.9,0-11.89-.93-21.23-2.79-28.01-.1-.43-.14-.79-.14-1.07,0-.76.36-1.29,1.07-1.58,21.48-3.63,26.76,5.87,27.29,5.87-.53,0,2.04-1.66,7.7-4.98,5.66-3.32,10.61-4.98,14.86-4.98,6.06,0,11.13,1.43,15.19,4.3,4.54,3.29,6.8,7.88,6.8,13.75v22.85c0,3.1.02,7.75.07,13.93.05,6.18.07,10.83.07,13.93Z"/>
      <path class="cls-1" d="M807.4,343.88c0,13.17-9.05,21.94-24.35,22.28-13.8.31-20.7-5.28-20.7-15.83,0-3.15.12-7.89.36-14.22.24-6.33.36-11.07.36-14.22,0-2.1-1.22-3.15-3.65-3.15h-.93c-.43.05-.74.07-.93.07-1.82,0-2.72-.64-2.72-1.93,0-.76.12-1.93.18-3.51.49-14.17,7.06-14.78,7.2-15.69.29-1.81,0-17.69,0-17.41,0-5.54.53-8.31,1.58-8.31,1.29,0,3.17.13,5.52.86,16.41,5.09,17.55,19.1,17.55,21.06,0,2.34.69,3.51,2.08,3.51,1.67,0,4.2-.07,7.59-.21,3.39-.14,5.95-.21,7.66-.21,1.05,0,1.58.36,1.58,1.07,0,1.1-.12,2.75-.36,4.94-.24,2.2-1.25,14.32-11.89,16.26h-5.37c-.72,0-1.07,1.05-1.07,3.15v5.09c.05,2.29.07,3.99.07,5.09,0,4.01.45,6.78,1.36,8.31,1.29,2.05,3.82,3.08,7.59,3.08,1.19,0,2.9-.27,5.12-.82,2.22-.55,3.78-.82,4.69-.82,1,0,1.5.53,1.5,1.58Z"/>
      <path class="cls-1" d="M886.91,329.06c.55,3.64,1.29,29.11,1.29,32.73,0,1.91-.84,2.94-2.51,3.08-5.92.43-11.45,1.95-23.28-7.66-.38.19-.88.6-1.5,1.22-5.35,5.4-11.08,8.09-17.19,8.09-9.31,0-17.02-3.68-23.14-11.03-5.78-6.88-8.67-15.09-8.67-24.64,0-11.03,2.98-19.91,8.95-26.65,6.21-6.97,14.71-10.46,25.5-10.46,7.5,0,13.42,2.63,17.76,7.88.19.24.36.36.5.36.43,0-.44-2.05,1.47-3.47,2.86-2.14,16.26.29,20.81,30.55ZM863.84,329.49c0-4.06-1.28-7.41-3.83-10.06-2.55-2.65-5.89-3.98-9.99-3.98s-7.43,1.31-9.96,3.94c-2.53,2.63-3.8,5.99-3.8,10.1,0,3.87,1.34,7.19,4.01,9.96,2.67,2.77,5.92,4.15,9.74,4.15,4.06,0,7.38-1.33,9.96-3.98s3.87-6.03,3.87-10.14ZM838.42,288.16c-.91.05-1.36-.45-1.36-1.5,0-.38.05-.98.14-1.79.1-.81.14-1.43.14-1.86,0-.57,7.88-10.15,14.61-13.97,2.91-2.1,19.98-3.76,27-.86.76.53,1.15,1,1.15,1.43,0,.38-.33.88-1,1.5-4.2,3.96-10.51,7.72-18.91,11.28-8.4,3.56-15.45,5.48-21.13,5.77h-.64Z"/>
      <path class="cls-1" d="M970.07,315.16c0,8.17-.26,12.99-.79,14.47-1.1,3.39-4.39,9.14-9.88,17.26-4.78,6.97-15.92,18.65-23.49,18.55-7.71-.1-20.06-10.5-25.36-18.19-5.68-8.26-9.07-13.92-10.17-16.98-1.19-3.29-1.79-8.24-1.79-14.83,0-1.86.02-4.67.07-8.42.05-3.75.07-6.58.07-8.49,0-1.24.84-1.86,2.51-1.86,2.44,0,6.11-.11,11,.21,11.77.78,12.21,23.64,12.5,26.79.14,1.62,1.53,4.68,4.15,9.17,2.72,4.73,4.7,7.09,5.95,7.09s3.1-2.32,5.73-6.95c2.53-4.34,4.06-7.29,4.08-8.88.36-21.21,7.78-26.02,11.46-26.86,1.12-.25,9.24-.57,10.39-.57s1.98.62,2.36,1.86c.81,2.72,1.22,8.26,1.22,16.62Z"/>
      <path class="cls-1" d="M1045.42,325.98c0,4.82-1.55,7.57-4.66,8.24-.53.1-5.47.62-14.83,1.58-5.64.62-14.04,1.36-25.21,2.22.67,3.1,2.7,5.47,6.09,7.09,2.77,1.34,5.92,2.01,9.46,2.01,4.25,0,8.52-1.15,12.82-3.44,1.81-1.15,3.63-2.29,5.44-3.44,1,.48,4.22,2.05,4.38,7.03.3,9.49-11.73,19.68-24.01,19.68-11.37,0-20.53-3.32-27.51-9.96-7.16-6.73-10.74-15.73-10.74-27s3.2-19.98,9.6-27c6.59-7.26,15.33-10.89,26.22-10.89,9.17,0,16.95,3.34,23.35,10.03,6.4,6.69,9.6,14.64,9.6,23.85ZM1020.35,321.61c0-2.96-1.05-5.56-3.15-7.81-2.1-2.24-4.61-3.37-7.52-3.37s-5.49,1.27-7.45,3.8c-1.82,2.34-2.72,5.09-2.72,8.24,0,1.29.67,1.93,2.01,1.93,3.53,0,9.03-.55,16.47-1.65,1.58-.24,2.36-.62,2.36-1.15Z"/>
      <path class="cls-1" d="M1079.37,321.75c0,13.04.05,23.04.14,30.01,0,1.1.07,2.98.21,5.66.14,2.44.21,4.32.21,5.66,0,1-.6,1.6-1.79,1.79-2.15.38-6.02.57-11.6.57s-9.38-.19-10.96-.57c-1.05-.24-1.65-.88-1.79-1.93v-3.08c0-4.25.05-10.61.14-19.09.1-8.48.14-14.81.14-19.02,0-20.06.02-29.2.07-27.43-.36-19.54,25.5-30.08,25.5-30.08,1.19,0,1.74.5,1.65,1.5l-.07,1.29c-1.24,20.63-1.86,38.87-1.86,54.72Z"/>
    </g>
  </g>
</svg>